<svg xmlns="http://www.w3.org/2000/svg" version="1.1" xmlns:xlink="http://www.w3.org/1999/xlink" xmlns:svgjs="http://svgjs.com/svgjs" width="1920" height="1080" preserveAspectRatio="none" viewBox="0 0 1920 1080"><g mask="url(&quot;#SvgjsMask15740&quot;)" fill="none"><rect width="1920" height="1080" x="0" y="0" fill="rgba(138, 150, 139, 1)"></rect><path d="M1135.69 738.32 L1070.85 621.91L1156.0104876252424 627.3745123747576z" stroke="rgba(27, 135, 127, 1)" stroke-width="1.02" stroke-dasharray="3, 3"></path><rect width="671.84" height="671.84" clip-path="url(&quot;#SvgjsClipPath15741&quot;)" x="209.22" y="492.2" fill="url(#SvgjsPattern15742)" transform="rotate(110.98, 545.14, 828.12)"></rect><rect width="212.4" height="212.4" clip-path="url(&quot;#SvgjsClipPath15743&quot;)" x="390.52" y="962.82" fill="url(#SvgjsPattern15744)" transform="rotate(172.76, 496.72, 1069.02)"></rect><rect width="660" height="660" clip-path="url(&quot;#SvgjsClipPath15745&quot;)" x="-98.71" y="582.12" fill="url(#SvgjsPattern15746)" transform="rotate(18, 231.29, 912.12)"></rect><path d="M557.27 259.69a5.6 5.6 0 1 0-11.17 0.82 5.6 5.6 0 1 0 11.17-0.82zM541.32 260.86a5.6 5.6 0 1 0-11.17 0.81 5.6 5.6 0 1 0 11.17-0.81zM525.36 262.02a5.6 5.6 0 1 0-11.17 0.82 5.6 5.6 0 1 0 11.17-0.82zM509.4 263.19a5.6 5.6 0 1 0-11.17 0.82 5.6 5.6 0 1 0 11.17-0.82zM588.02 241.4a5.6 5.6 0 1 0-11.17 0.82 5.6 5.6 0 1 0 11.17-0.82zM572.07 242.57a5.6 5.6 0 1 0-11.17 0.81 5.6 5.6 0 1 0 11.17-0.81zM556.11 243.73a5.6 5.6 0 1 0-11.17 0.82 5.6 5.6 0 1 0 11.17-0.82zM540.15 244.9a5.6 5.6 0 1 0-11.17 0.82 5.6 5.6 0 1 0 11.17-0.82z" stroke="rgba(231, 54, 53, 0.8)" stroke-width="1" stroke-dasharray="3, 3"></path><rect width="114.60000000000001" height="114.60000000000001" clip-path="url(&quot;#SvgjsClipPath15747&quot;)" x="448.25" y="957.83" fill="url(#SvgjsPattern15748)" transform="rotate(23.82, 505.55, 1015.13)"></rect><circle r="94.15988961928718" cx="1437.84" cy="457.83" fill="rgba(231, 54, 53, 0.8)"></circle><rect width="392.96" height="392.96" clip-path="url(&quot;#SvgjsClipPath15749&quot;)" x="1544.05" y="793.38" fill="url(#SvgjsPattern15750)" transform="rotate(295.81, 1740.53, 989.86)"></rect></g><defs><mask id="SvgjsMask15740"><rect width="1920" height="1080" fill="#ffffff"></rect></mask><pattern x="0" y="0" width="8.84" height="8.84" patternUnits="userSpaceOnUse" id="SvgjsPattern15742"><path d="M4.42 1L4.42 7.84M1 4.42L7.84 4.42" stroke="rgba(231, 54, 53, 0.8)" fill="none" stroke-width="2.38"></path></pattern><clipPath id="SvgjsClipPath15741"><circle r="167.96" cx="545.14" cy="828.12"></circle></clipPath><pattern x="0" y="0" width="212.4" height="7.08" patternUnits="userSpaceOnUse" id="SvgjsPattern15744"><rect width="212.4" height="3.54" x="0" y="0" fill="rgba(27, 135, 127, 1)"></rect><rect width="212.4" height="3.54" x="0" y="3.54" fill="rgba(0, 0, 0, 0)"></rect></pattern><clipPath id="SvgjsClipPath15743"><circle r="53.1" cx="496.72" cy="1069.02"></circle></clipPath><pattern x="0" y="0" width="660" height="6" patternUnits="userSpaceOnUse" id="SvgjsPattern15746"><rect width="660" height="3" x="0" y="0" fill="rgba(3, 123, 11, 0.8)"></rect><rect width="660" height="3" x="0" y="3" fill="rgba(0, 0, 0, 0)"></rect></pattern><clipPath id="SvgjsClipPath15745"><circle r="165" cx="231.29" cy="912.12"></circle></clipPath><pattern x="0" y="0" width="11.46" height="11.46" patternUnits="userSpaceOnUse" id="SvgjsPattern15748"><path d="M0 11.46L5.73 0L11.46 11.46" stroke="rgba(27, 135, 127, 1)" fill="none"></path></pattern><clipPath id="SvgjsClipPath15747"><circle r="28.650000000000002" cx="505.55" cy="1015.13"></circle></clipPath><pattern x="0" y="0" width="392.96" height="12.28" patternUnits="userSpaceOnUse" id="SvgjsPattern15750"><rect width="392.96" height="6.14" x="0" y="0" fill="rgba(27, 135, 127, 1)"></rect><rect width="392.96" height="6.14" x="0" y="6.14" fill="rgba(0, 0, 0, 0)"></rect></pattern><clipPath id="SvgjsClipPath15749"><circle r="98.24" cx="1740.53" cy="989.86"></circle></clipPath></defs></svg>