<svg xmlns="http://www.w3.org/2000/svg" version="1.1" xmlns:xlink="http://www.w3.org/1999/xlink" xmlns:svgjs="http://svgjs.com/svgjs" width="1440" height="560" preserveAspectRatio="none" viewBox="0 0 1440 560"><g mask="url(&quot;#SvgjsMask1153&quot;)" fill="none"><circle r="60.913616103106385" cx="1230.77" cy="487.37" stroke="rgba(27, 135, 127, 1)" stroke-width="1" stroke-dasharray="2, 2"></circle><path d="M749.34 579.56 L773 603.64L784.6467213633672 568.1232786366328z" stroke="rgba(27, 135, 127, 1)" stroke-width="1" stroke-dasharray="3, 2"></path><path d="M1075.25 420.32L1079.66 432.35 1068.9 439.29 1073.3 451.31 1062.54 458.25 1066.95 470.27 1056.18 477.21M1067.67 417.78L1072.07 429.81 1061.31 436.74 1065.72 448.77 1054.96 455.71 1059.36 467.73 1048.6 474.67M1060.08 415.24L1064.49 427.26 1053.73 434.2 1058.13 446.23 1047.37 453.17 1051.78 465.19 1041.01 472.13" stroke="rgba(231, 54, 53, 0.8)" stroke-width="1.05" stroke-dasharray="4, 4"></path><rect width="348" height="348" clip-path="url(&quot;#SvgjsClipPath1154&quot;)" x="952.15" y="132.19" fill="url(#SvgjsPattern1155)" transform="rotate(285.11, 1126.15, 306.19)"></rect><path d="M1319.02 557.45 L1407.9099999999999 465.1L1443.2906836332338 591.100683633234z" fill="rgba(3, 123, 11, 0.8)"></path><circle r="46.666666666666664" cx="883.81" cy="37.79" fill="rgba(27, 135, 127, 1)"></circle><path d="M398.97 520.81a5.6 5.6 0 1 0 11.2 0.24 5.6 5.6 0 1 0-11.2-0.24zM414.97 521.15a5.6 5.6 0 1 0 11.2 0.24 5.6 5.6 0 1 0-11.2-0.24zM430.97 521.49a5.6 5.6 0 1 0 11.19 0.24 5.6 5.6 0 1 0-11.19-0.24zM446.96 521.84a5.6 5.6 0 1 0 11.2 0.23 5.6 5.6 0 1 0-11.2-0.23zM366.64 536.13a5.6 5.6 0 1 0 11.2 0.24 5.6 5.6 0 1 0-11.2-0.24zM382.64 536.47a5.6 5.6 0 1 0 11.19 0.24 5.6 5.6 0 1 0-11.19-0.24zM398.63 536.81a5.6 5.6 0 1 0 11.2 0.24 5.6 5.6 0 1 0-11.2-0.24zM414.63 537.15a5.6 5.6 0 1 0 11.2 0.24 5.6 5.6 0 1 0-11.2-0.24z" fill="rgba(231, 54, 53, 0.8)"></path><path d="M34.68 130.64a5.6 5.6 0 1 0-1.51 11.1 5.6 5.6 0 1 0 1.51-11.1zM32.53 146.5a5.6 5.6 0 1 0-1.51 11.1 5.6 5.6 0 1 0 1.51-11.1zM30.38 162.35a5.6 5.6 0 1 0-1.51 11.1 5.6 5.6 0 1 0 1.51-11.1zM28.23 178.21a5.6 5.6 0 1 0-1.51 11.1 5.6 5.6 0 1 0 1.51-11.1zM23.12 96.78a5.6 5.6 0 1 0-1.5 11.1 5.6 5.6 0 1 0 1.5-11.1zM20.97 112.64a5.6 5.6 0 1 0-1.5 11.1 5.6 5.6 0 1 0 1.5-11.1zM18.82 128.49a5.6 5.6 0 1 0-1.5 11.1 5.6 5.6 0 1 0 1.5-11.1zM16.67 144.35a5.6 5.6 0 1 0-1.5 11.1 5.6 5.6 0 1 0 1.5-11.1zM11.56 62.92a5.6 5.6 0 1 0-1.5 11.1 5.6 5.6 0 1 0 1.5-11.1zM9.41 78.78a5.6 5.6 0 1 0-1.5 11.1 5.6 5.6 0 1 0 1.5-11.1zM7.26 94.63a5.6 5.6 0 1 0-1.5 11.1 5.6 5.6 0 1 0 1.5-11.1zM5.12 110.49a5.6 5.6 0 1 0-1.51 11.1 5.6 5.6 0 1 0 1.51-11.1z" stroke="rgba(27, 135, 127, 1)" stroke-width="1" stroke-dasharray="4, 4"></path><rect width="80.64" height="80.64" clip-path="url(&quot;#SvgjsClipPath1156&quot;)" x="1161.76" y="424.57" fill="url(#SvgjsPattern1157)" transform="rotate(116.54, 1202.08, 464.89)"></rect><path d="M538.66 283.47 L704.91 234.01999999999998L509.67487349103556 146.63487349103556z" stroke="rgba(27, 135, 127, 1)" stroke-width="1.09" stroke-dasharray="2, 2"></path><circle r="46.666666666666664" cx="1295.98" cy="49.35" fill="rgba(3, 123, 11, 0.8)"></circle><rect width="360" height="360" clip-path="url(&quot;#SvgjsClipPath1158&quot;)" x="-69.95" y="297.76" fill="url(#SvgjsPattern1159)" transform="rotate(238.24, 110.05, 477.76)"></rect></g><defs><mask id="SvgjsMask1153"><rect width="1440" height="560" fill="#ffffff"></rect></mask><pattern x="0" y="0" width="6" height="6" patternUnits="userSpaceOnUse" id="SvgjsPattern1155"><path d="M3 1L3 5M1 3L5 3" stroke="rgba(3, 123, 11, 0.8)" fill="none" stroke-width="1.78"></path></pattern><clipPath id="SvgjsClipPath1154"><circle r="87" cx="1126.15" cy="306.19"></circle></clipPath><pattern x="0" y="0" width="80.64" height="6.72" patternUnits="userSpaceOnUse" id="SvgjsPattern1157"><rect width="80.64" height="3.36" x="0" y="0" fill="rgba(3, 123, 11, 0.8)"></rect><rect width="80.64" height="3.36" x="0" y="3.36" fill="rgba(0, 0, 0, 0)"></rect></pattern><clipPath id="SvgjsClipPath1156"><circle r="20.16" cx="1202.08" cy="464.89"></circle></clipPath><pattern x="0" y="0" width="360" height="6" patternUnits="userSpaceOnUse" id="SvgjsPattern1159"><rect width="360" height="3" x="0" y="0" fill="rgba(3, 123, 11, 0.8)"></rect><rect width="360" height="3" x="0" y="3" fill="rgba(0, 0, 0, 0)"></rect></pattern><clipPath id="SvgjsClipPath1158"><circle r="90" cx="110.05" cy="477.76"></circle></clipPath></defs></svg>